<?xml version="1.0" standalone="no"?>
<!DOCTYPE svg PUBLIC "-//W3C//DTD SVG 20010904//EN"
 "http://www.w3.org/TR/2001/REC-SVG-20010904/DTD/svg10.dtd">
<svg version="1.0" xmlns="http://www.w3.org/2000/svg"
 width="225.000000pt" height="225.000000pt" viewBox="0 0 225.000000 225.000000"
 preserveAspectRatio="xMidYMid meet">

<g transform="translate(0.000000,225.000000) scale(0.100000,-0.100000)"
fill="#000000" stroke="none">
<path d="M1107 2073 c-16 -18 -26 -24 -144 -82 -164 -80 -178 -101 -163 -243
23 -224 114 -461 216 -564 76 -78 142 -83 215 -17 128 116 246 471 230 694 -2
30 -63 77 -160 124 -53 26 -113 60 -133 76 -43 34 -41 34 -61 12z m49 -104
c10 -11 26 -18 36 -16 10 3 16 1 13 -4 -3 -4 6 -11 20 -15 14 -3 25 -10 25
-15 0 -5 7 -9 15 -9 8 0 15 -4 15 -8 0 -8 63 -34 77 -32 5 0 11 -16 15 -37 8
-47 -12 -143 -30 -143 -7 0 -20 -6 -27 -14 -15 -15 -107 -11 -113 5 -6 15 -27
10 -45 -11 -14 -17 -20 -18 -31 -8 -8 7 -12 16 -9 21 2 4 -34 7 -81 7 -83 0
-86 -1 -92 -25 -4 -14 -11 -24 -16 -23 -15 5 -37 75 -44 140 -6 53 -4 60 17
78 13 11 41 28 62 38 20 9 37 20 37 24 0 5 7 8 15 8 8 0 15 4 15 10 0 5 6 7
13 5 6 -3 28 6 47 19 43 31 43 31 66 5z"/>
<path d="M617 1882 c-66 -72 -80 -104 -85 -202 -4 -76 -1 -94 23 -155 48 -122
145 -239 246 -298 55 -33 179 -80 179 -68 0 4 -10 23 -23 42 -112 166 -179
356 -193 545 -7 90 -7 91 -51 137 -24 26 -45 47 -47 47 -2 0 -24 -22 -49 -48z
m63 -144 c0 -76 -8 -108 -25 -108 -7 0 -15 -6 -18 -12 -9 -29 -19 59 -12 118
6 59 8 64 31 64 23 0 24 -3 24 -62z"/>
<path d="M1543 1878 c-40 -43 -41 -43 -51 -153 -6 -60 -23 -150 -37 -200 -25
-87 -103 -254 -151 -325 -13 -19 -24 -38 -24 -42 0 -9 94 23 156 55 104 53
209 173 262 299 22 52 27 79 27 153 0 81 -3 95 -29 143 -27 49 -86 112 -104
112 -4 0 -26 -19 -49 -42z m61 -73 c-4 -8 -1 -15 6 -15 6 0 9 -4 6 -9 -4 -5
-2 -11 4 -13 5 -1 10 -27 11 -57 2 -40 -2 -57 -14 -66 -10 -7 -18 -18 -18 -26
-1 -8 -5 9 -9 36 -10 64 -12 150 -3 158 12 12 22 7 17 -8z"/>
<path d="M301 1623 l-44 -4 36 -25 c21 -14 68 -72 112 -138 89 -133 157 -202
243 -245 62 -31 209 -77 219 -68 3 3 -20 18 -50 32 -105 52 -167 114 -292 293
-105 151 -124 164 -224 155z m123 -78 c16 -12 17 -18 8 -27 -11 -11 -17 -6 -9
7 1 2 -7 11 -18 19 -11 9 -15 15 -10 15 6 0 19 -6 29 -14z"/>
<path d="M1839 1597 c-18 -12 -68 -74 -111 -137 -97 -145 -188 -237 -274 -279
-35 -17 -64 -34 -64 -37 0 -9 67 5 135 29 140 48 221 115 319 267 65 100 95
135 136 163 24 17 23 17 -41 17 -52 0 -73 -5 -100 -23z m23 -50 c-7 -8 -10
-17 -7 -21 3 -3 0 -2 -7 3 -8 8 -8 14 2 26 7 8 15 13 18 10 3 -2 0 -11 -6 -18z
m-32 -48 c-7 -11 -14 -18 -17 -15 -8 8 5 36 17 36 7 0 7 -6 0 -21z"/>
<path d="M284 1000 c-56 -22 -72 -103 -29 -145 33 -34 102 -36 114 -3 13 36 2
68 -25 68 -13 0 -24 -5 -24 -10 0 -6 8 -10 18 -8 13 2 17 -4 17 -27 0 -26 -4
-30 -32 -33 -44 -4 -73 26 -73 76 0 51 24 72 79 72 26 0 40 4 36 10 -7 12 -52
12 -81 0z"/>
<path d="M668 1004 c-5 -4 -8 -46 -8 -92 0 -85 7 -105 14 -43 2 17 6 34 9 37
10 10 46 -16 64 -46 9 -17 21 -30 26 -30 9 0 4 10 -25 52 -18 27 -18 28 2 48
23 23 24 30 7 53 -13 19 -77 34 -89 21z m73 -30 c19 -23 -1 -49 -37 -49 -30 0
-42 20 -30 51 7 19 50 18 67 -2z"/>
<path d="M1172 950 c-2 -74 -21 -110 -56 -110 -36 0 -46 19 -46 92 0 39 -4 68
-10 68 -6 0 -10 -28 -10 -63 0 -78 17 -107 64 -107 53 0 68 25 63 111 l-3 74
-2 -65z"/>
<path d="M1478 1004 c-12 -11 -10 -174 2 -174 6 0 10 16 10 35 0 31 3 35 25
35 35 0 68 35 59 63 -3 12 -10 26 -13 30 -11 11 -75 20 -83 11z m70 -26 c18
-18 14 -46 -7 -58 -43 -22 -62 -5 -53 48 5 24 39 31 60 10z"/>
<path d="M1868 980 c-27 -27 -30 -36 -25 -73 7 -50 35 -77 81 -77 44 0 74 24
82 65 17 95 -73 150 -138 85z m104 -7 c27 -24 25 -97 -4 -117 -51 -36 -108 -4
-108 61 0 20 7 45 17 55 20 22 70 23 95 1z"/>
<path d="M234 695 c-3 -8 -4 -102 -2 -209 l3 -194 31 -39 c40 -50 75 -66 152
-71 l62 -4 0 29 c0 30 -1 30 -62 37 -48 5 -69 12 -88 31 -25 25 -25 27 -28
230 l-3 205 -30 0 c-17 0 -32 -6 -35 -15z"/>
<path d="M515 698 c-3 -7 -4 -126 -3 -263 l3 -250 26 -3 c33 -4 35 2 38 142 4
148 26 179 116 162 54 -10 65 -42 65 -186 l0 -120 30 0 30 0 0 125 c0 153 -14
196 -71 225 -49 25 -95 25 -136 0 l-32 -19 -3 97 -3 97 -28 3 c-16 2 -29 -2
-32 -10z"/>
<path d="M985 531 c-48 -22 -69 -44 -90 -94 -37 -89 2 -199 87 -243 36 -19
118 -18 146 2 14 9 22 26 22 43 l0 29 -37 -19 c-45 -23 -65 -24 -104 -4 -84
44 -91 163 -13 224 49 38 148 20 175 -31 7 -12 13 -72 14 -133 2 -60 3 -113 4
-117 1 -5 15 -8 31 -8 l30 0 -1 113 c0 61 -6 127 -12 145 -35 94 -154 138
-252 93z"/>
<path d="M1757 535 c-52 -18 -83 -49 -103 -102 -46 -119 38 -254 160 -255 58
-1 96 23 96 61 l0 28 -41 -20 c-35 -17 -46 -18 -79 -8 -129 38 -112 233 21
248 46 5 98 -13 116 -39 4 -7 10 -69 13 -138 l5 -125 30 0 c28 0 29 1 32 55 1
30 -2 92 -6 138 -8 75 -12 87 -41 117 -49 51 -130 67 -203 40z"/>
<path d="M1353 524 c-42 -21 -57 -64 -39 -108 14 -35 64 -64 144 -86 57 -15
86 -44 72 -70 -10 -18 -21 -20 -114 -20 -56 0 -105 -2 -108 -5 -3 -3 -3 -17 0
-30 4 -25 6 -25 106 -25 113 0 158 17 177 67 24 65 -13 111 -117 143 -90 27
-106 37 -102 63 3 21 10 22 103 27 l100 5 3 28 3 27 -98 0 c-68 0 -108 -5
-130 -16z"/>
</g>
</svg>
