<?xml version="1.0" standalone="no"?>
<!DOCTYPE svg PUBLIC "-//W3C//DTD SVG 20010904//EN"
 "http://www.w3.org/TR/2001/REC-SVG-20010904/DTD/svg10.dtd">
<svg version="1.0" xmlns="http://www.w3.org/2000/svg"
 width="486.000000pt" height="498.000000pt" viewBox="0 0 486.000000 498.000000"
 preserveAspectRatio="xMidYMid meet">

<g transform="translate(0.000000,498.000000) scale(0.100000,-0.100000)"
fill="#000000" stroke="none">
<path d="M0 2490 l0 -2490 2430 0 2430 0 0 2490 0 2490 -2430 0 -2430 0 0
-2490z m3380 1530 c0 -5 -12 -12 -27 -15 -69 -15 -147 -44 -196 -73 -21 -12
-46 -22 -55 -22 -10 0 -25 -9 -35 -20 -22 -27 -40 -26 -32 1 6 19 4 21 -18 17
-24 -5 -28 0 -46 53 l-20 59 207 3 c114 1 210 3 215 5 4 1 7 -2 7 -8z m-1960
-17 c0 -16 -7 -50 -25 -130 -3 -13 -45 -51 -102 -93 -54 -40 -99 -75 -100 -78
-1 -4 36 -34 82 -67 l84 -60 3 -148 3 -149 74 106 c41 58 75 106 76 106 1 0
39 -15 86 -34 46 -19 85 -33 87 -31 2 2 -9 65 -23 141 l-27 139 68 137 c38 76
66 140 63 142 -3 3 -45 -6 -94 -19 -50 -14 -91 -25 -92 -25 -2 0 -12 18 -23
40 l-20 40 659 0 659 0 17 -49 c9 -28 15 -67 13 -87 -3 -32 -8 -39 -36 -48
-18 -6 -37 -17 -41 -25 -5 -7 -12 -13 -17 -13 -5 1 -8 -5 -7 -11 1 -7 -16 -21
-40 -32 -23 -11 -51 -35 -63 -53 -13 -18 -25 -28 -29 -22 -3 5 -4 14 -1 19 3
5 -1 14 -9 21 -13 11 -15 7 -15 -23 0 -31 -5 -38 -42 -60 -24 -14 -59 -40 -78
-59 -43 -40 -204 -133 -196 -113 8 22 0 19 -61 -22 -30 -20 -63 -37 -72 -38
-22 -1 -41 -14 -41 -27 0 -6 6 -5 16 3 29 24 4 -43 -30 -81 -17 -19 -34 -39
-38 -44 -3 -4 -14 -4 -24 2 -25 14 -79 -29 -94 -73 -13 -41 -40 -55 -40 -22 0
13 5 28 12 35 7 7 9 12 5 12 -3 0 -17 -11 -31 -25 -14 -14 -34 -25 -44 -25
-10 0 -38 -20 -62 -44 -24 -25 -47 -43 -51 -40 -12 7 -32 -25 -25 -41 4 -10
-3 -19 -18 -26 -13 -6 -29 -22 -35 -35 -6 -13 -16 -24 -22 -24 -20 0 -311
-283 -299 -290 8 -5 1 -19 -19 -43 -20 -22 -29 -41 -25 -51 4 -12 -2 -19 -23
-26 -31 -11 -155 -141 -174 -183 -6 -14 -19 -27 -29 -30 -9 -2 -20 -14 -23
-26 -4 -18 -3 -20 9 -10 20 17 17 -2 -6 -31 -11 -14 -20 -30 -20 -37 0 -6 -5
-15 -12 -19 -8 -5 -9 0 -6 14 10 36 -1 25 -22 -20 -18 -43 -19 -33 -19 890
l-1 932 215 0 c198 0 215 -1 215 -17z m2440 -885 l0 -903 -40 45 c-21 25 -42
53 -45 63 -5 12 -13 16 -25 12 -13 -4 -20 0 -24 13 -4 10 -18 24 -31 30 -20 9
-32 36 -24 55 1 1 -15 19 -35 40 -39 42 -45 57 -21 57 9 0 15 -7 13 -16 -2
-10 3 -19 10 -21 15 -6 16 12 0 40 -15 30 -31 44 -43 40 -6 -1 -18 11 -27 27
-10 18 -25 30 -38 30 -11 0 -20 5 -20 10 0 13 16 13 41 0 22 -12 24 -7 8 22
-8 14 -17 18 -35 14 -20 -5 -28 0 -48 33 -14 22 -31 43 -39 48 -7 4 -19 28
-27 53 -7 25 -17 50 -22 57 -5 6 -6 23 -2 37 3 15 2 32 -4 39 -5 6 -13 28 -17
47 -4 19 -11 41 -16 50 -4 8 -10 24 -14 34 -4 15 -8 17 -17 8 -9 -9 -6 -18 11
-36 21 -22 22 -46 2 -46 -4 0 -19 18 -34 41 -19 29 -24 45 -18 57 9 16 -5 62
-20 62 -4 0 -15 7 -24 16 -13 13 -14 19 -4 25 8 4 19 3 26 -3 7 -6 13 -7 13
-2 -1 15 -24 38 -52 53 -16 8 -28 22 -28 31 0 9 -7 25 -15 36 -8 10 -15 27
-15 37 0 11 -8 31 -18 45 -20 28 -34 72 -24 72 3 0 14 -7 24 -17 25 -22 23 -2
-6 55 -13 26 -36 86 -52 134 -23 72 -26 89 -15 102 8 9 21 16 30 15 11 0 9 -3
-6 -9 -20 -8 -33 -30 -18 -30 11 0 83 40 87 48 4 9 105 52 124 52 7 0 17 -7
21 -15 8 -13 14 -12 46 5 20 11 45 20 55 20 10 0 28 11 40 25 21 24 52 34 52
16 0 -14 37 -1 56 20 9 10 25 19 34 19 10 0 23 6 30 14 6 8 18 12 26 9 8 -3
20 1 27 10 7 8 25 18 40 21 17 4 31 16 37 31 8 22 16 25 60 25 l50 0 0 -902z
m-895 777 l6 -30 -15 25 c-17 28 -22 60 -7 45 5 -6 12 -23 16 -40z m-3 -259
c4 -6 8 -25 8 -42 0 -17 7 -37 15 -44 9 -7 14 -19 11 -26 -7 -17 16 -71 44
-106 17 -23 19 -31 10 -49 -9 -15 -9 -24 -1 -32 6 -6 11 -18 11 -27 0 -9 14
-26 30 -38 17 -13 30 -27 30 -33 0 -6 9 -18 20 -27 11 -10 22 -33 25 -52 l5
-35 -20 40 c-16 32 -20 35 -18 15 1 -14 -1 -30 -5 -36 -11 -19 4 -75 24 -87
24 -15 24 -27 2 -27 -16 -1 -16 -2 -3 -13 8 -7 21 -30 29 -52 8 -22 22 -51 32
-64 11 -13 19 -34 19 -46 0 -12 7 -29 16 -36 9 -8 25 -32 35 -54 10 -22 18
-32 18 -22 1 15 4 16 22 7 11 -7 18 -18 15 -25 -9 -25 13 -83 32 -81 13 1 18
-9 20 -44 2 -25 11 -54 21 -65 10 -11 21 -28 24 -37 4 -10 13 -18 21 -18 8 0
17 -9 21 -19 3 -11 12 -22 20 -25 8 -3 15 -16 15 -29 0 -27 13 -40 63 -67 24
-14 32 -24 30 -44 -1 -16 4 -27 16 -31 24 -7 67 -55 76 -84 6 -20 5 -23 -11
-18 -30 11 48 -53 84 -68 28 -12 32 -18 26 -40 -4 -15 -2 -25 5 -26 6 -1 15
-2 19 -3 5 0 16 -9 25 -18 13 -13 17 -35 17 -97 l0 -81 -437 0 -437 0 21 22
c22 21 22 21 103 4 45 -10 84 -16 87 -13 3 3 -5 47 -16 97 l-22 91 67 91 67
91 -69 -7 c-38 -3 -83 -9 -100 -12 -31 -6 -33 -3 -80 75 -27 45 -51 81 -54 81
-3 0 -19 -48 -36 -107 l-30 -106 -93 -41 c-51 -23 -93 -45 -93 -49 1 -5 33
-31 71 -58 75 -52 83 -69 65 -136 l-6 -23 -939 0 -939 0 0 116 0 116 38 50
c20 27 47 61 58 73 12 13 40 50 63 82 22 32 54 67 71 78 16 11 30 26 30 33 0
7 11 30 25 52 17 27 30 38 43 35 14 -2 24 7 35 31 9 19 21 34 26 34 6 0 35 25
66 55 30 30 64 55 75 55 11 0 23 8 26 18 10 33 22 47 37 44 8 -1 31 17 51 40
19 24 45 52 56 64 11 12 20 26 20 31 0 6 11 14 25 17 25 6 58 33 127 101 34
34 39 36 33 16 -6 -20 -4 -23 9 -18 21 8 20 -3 -1 -19 -10 -7 -15 -15 -11 -19
8 -8 118 71 118 85 0 6 7 10 15 10 19 0 63 48 80 88 12 27 19 32 35 27 14 -4
20 -2 20 8 0 8 19 22 42 33 23 10 57 34 77 52 19 18 47 36 61 38 14 3 38 23
55 45 16 22 39 42 51 45 23 6 64 44 48 44 -6 0 -15 -5 -22 -12 -21 -21 -13 8
10 38 39 50 48 58 48 40 0 -18 16 -21 25 -6 4 6 11 8 16 4 6 -3 17 -3 26 0 12
5 13 9 4 20 -15 17 8 29 62 31 24 1 53 13 80 32 23 17 47 28 53 26 6 -2 16 8
22 22 6 14 20 25 30 25 10 0 29 11 42 25 24 26 56 26 72 1z m-1814 -2128 l-3
-253 -77 -3 -78 -3 0 256 0 255 80 0 80 0 -2 -252z m408 138 l28 -23 34 23
c26 18 49 24 89 24 49 0 59 -4 88 -33 41 -41 47 -77 43 -252 l-3 -130 -70 0
-70 0 -3 134 c-3 137 -9 161 -43 161 -38 0 -49 -37 -49 -172 l0 -128 -70 0
-70 0 0 128 c0 135 -11 172 -49 172 -37 0 -45 -27 -49 -167 l-4 -134 -67 3
-66 3 -3 203 -2 202 70 0 c63 0 70 -2 70 -20 0 -18 2 -18 36 5 50 34 122 35
160 1z m671 -2 c41 -31 51 -73 55 -242 l3 -152 -68 0 c-60 0 -70 2 -74 20 -5
20 -5 20 -30 0 -20 -15 -41 -20 -89 -20 -56 0 -68 4 -95 28 -58 52 -48 162 19
196 15 7 60 19 100 26 81 15 99 28 82 59 -14 28 -65 28 -82 1 -11 -17 -24 -20
-75 -20 -60 0 -63 1 -63 24 0 33 44 84 83 95 18 6 71 9 119 8 70 -2 92 -6 115
-23z m327 5 c21 -17 26 -18 26 -5 0 13 13 16 75 16 l75 0 0 -199 c0 -207 -6
-248 -44 -289 -36 -41 -76 -55 -152 -55 -85 0 -138 22 -171 72 -37 55 -32 61
45 61 56 0 72 -4 87 -20 38 -42 85 -8 85 62 0 38 0 38 -20 18 -44 -44 -125
-38 -177 12 -82 79 -70 269 20 327 43 28 115 28 151 0z m533 0 c57 -27 91 -85
99 -168 l7 -62 -134 2 c-76 1 -135 -3 -136 -8 -2 -5 6 -22 17 -36 24 -31 65
-36 96 -12 27 20 144 21 144 0 0 -22 -61 -86 -97 -101 -75 -32 -198 -10 -244
42 -74 85 -70 246 8 316 55 50 166 63 240 27z m491 -4 l30 -25 38 25 c28 19
50 25 91 25 49 0 59 -4 89 -34 l34 -34 0 -176 0 -177 -67 3 -68 3 -5 138 c-5
138 -10 157 -45 157 -35 0 -40 -19 -45 -157 l-5 -138 -64 -3 c-45 -2 -67 1
-73 10 -4 7 -8 68 -7 136 1 127 -6 152 -41 152 -34 0 -42 -26 -45 -157 -2 -71
-4 -131 -4 -135 -1 -5 -32 -8 -71 -8 l-70 0 0 205 0 205 70 0 c65 0 70 -1 70
-22 l0 -21 23 20 c28 26 43 31 94 32 31 1 49 -6 71 -24z m-998 -645 l0 -50
-75 0 c-68 0 -75 -2 -75 -20 0 -18 7 -20 65 -20 l65 0 0 -45 0 -45 -65 0 -65
0 0 -65 0 -65 -50 0 -50 0 0 180 0 180 125 0 125 0 0 -50z m130 15 l0 -35 -50
0 c-48 0 -50 1 -50 28 0 38 6 42 57 42 43 0 43 0 43 -35z m140 -145 l0 -180
-45 0 -45 0 0 180 0 180 45 0 45 0 0 -180z m260 72 c22 -18 24 -18 60 0 46 23
82 16 110 -19 17 -22 20 -41 20 -129 l0 -104 -50 0 -50 0 0 91 c0 88 -1 90
-22 87 -22 -3 -23 -8 -26 -90 l-3 -88 -49 0 -50 0 0 91 c0 88 -1 90 -22 87
-22 -3 -23 -8 -26 -90 l-3 -88 -50 0 -50 0 3 128 3 127 43 3 c34 3 42 0 42
-14 0 -15 2 -16 18 -2 36 32 71 35 102 10z m409 2 c30 -12 45 -26 61 -58 11
-23 20 -54 20 -69 l0 -27 -85 0 c-68 0 -85 -3 -85 -15 0 -22 31 -34 60 -22 23
9 90 10 99 1 2 -2 -4 -13 -15 -25 -75 -83 -210 -52 -234 55 -15 65 18 137 73
161 42 18 58 18 106 -1z m279 0 c32 -12 62 -46 62 -69 0 -13 -83 -3 -97 10
-17 18 -38 15 -38 -5 0 -8 20 -19 48 -26 65 -16 87 -38 87 -84 0 -59 -35 -85
-116 -85 -61 0 -67 2 -95 33 -16 18 -29 37 -29 42 0 17 82 11 101 -6 20 -18
49 -12 49 10 0 9 -19 19 -51 26 -64 15 -89 39 -89 83 0 69 86 105 168 71z
m-1088 -124 l0 -130 -50 0 -50 0 0 123 c0 68 3 127 7 130 3 4 26 7 50 7 l43 0
0 -130z"/>
<path d="M2740 3182 l-36 -67 -72 -9 c-40 -5 -72 -13 -72 -18 0 -5 21 -31 47
-59 l46 -50 -17 -75 c-10 -41 -16 -78 -13 -80 3 -3 35 9 73 26 l68 30 68 -45
68 -45 -6 57 c-3 32 -7 69 -10 82 -4 20 7 37 57 87 69 69 69 69 -25 78 -32 4
-62 9 -66 11 -5 3 -21 37 -36 75 -15 39 -30 70 -33 70 -3 0 -22 -31 -41 -68z"/>
<path d="M3580 2311 c0 -5 5 -13 10 -16 6 -3 10 -2 10 4 0 5 -4 13 -10 16 -5
3 -10 2 -10 -4z"/>
<path d="M2073 1415 c-21 -9 -33 -21 -33 -33 0 -49 72 -54 90 -6 22 56 5 66
-57 39z"/>
<path d="M2490 1540 c-30 -30 -28 -103 5 -135 13 -14 30 -25 37 -25 53 1 78
102 37 154 -24 31 -52 33 -79 6z"/>
<path d="M2954 1562 c-6 -4 -16 -17 -23 -29 -12 -23 -11 -23 54 -23 50 0 65 3
65 14 0 35 -63 60 -96 38z"/>
<path d="M3442 878 c-21 -21 -13 -28 28 -28 22 0 40 4 40 8 0 14 -23 32 -40
32 -9 0 -21 -5 -28 -12z"/>
</g>
</svg>
