<?xml version="1.0" standalone="no"?>
<!DOCTYPE svg PUBLIC "-//W3C//DTD SVG 20010904//EN"
 "http://www.w3.org/TR/2001/REC-SVG-20010904/DTD/svg10.dtd">
<svg version="1.0" xmlns="http://www.w3.org/2000/svg"
 width="225.000000pt" height="225.000000pt" viewBox="0 0 225.000000 225.000000"
 preserveAspectRatio="xMidYMid meet">

<g transform="translate(0.000000,225.000000) scale(0.100000,-0.100000)"
fill="#000000" stroke="none">
<path d="M0 1125 l0 -1125 1125 0 1125 0 0 1125 0 1125 -1125 0 -1125 0 0
-1125z m2018 155 l0 -70 -51 -2 -52 -2 53 -3 c52 -4 52 -4 52 -39 l0 -34 -52
-2 -53 -2 53 -3 c52 -4 52 -4 52 -39 l0 -34 -52 -2 -53 -2 53 -3 c52 -4 52 -4
52 -39 l0 -34 -52 -2 -53 -2 53 -3 c52 -4 52 -4 52 -39 l0 -34 -890 0 -890 0
0 35 c0 35 0 35 48 37 l47 2 -47 3 c-47 4 -48 5 -48 39 0 34 0 34 48 36 l47 2
-47 3 c-47 4 -48 5 -48 39 0 34 0 34 48 36 l47 2 -47 3 c-47 4 -48 5 -48 39 0
34 0 34 48 36 l47 2 -47 3 -48 4 0 70 0 69 889 0 889 0 0 -70z"/>
<path d="M472 1271 c-48 -23 -77 -73 -66 -116 7 -29 25 -40 95 -61 59 -18 72
-39 39 -66 -29 -24 -62 -20 -75 10 -8 18 -18 22 -52 22 -40 0 -43 -2 -43 -28
0 -18 10 -38 26 -53 22 -21 35 -24 92 -23 105 1 162 41 162 115 0 45 -23 67
-86 83 -55 14 -75 36 -55 60 19 23 62 21 68 -4 4 -16 14 -20 49 -20 42 0 44 2
44 28 0 43 -31 65 -98 69 -42 3 -69 -2 -100 -16z"/>
<path d="M722 1128 c-18 -84 -32 -156 -32 -160 0 -5 53 -8 119 -8 115 0 119 1
125 23 3 12 6 25 6 30 0 4 -34 7 -75 7 -71 0 -75 1 -75 23 0 39 13 46 85 49
65 3 69 4 76 31 l7 27 -74 0 -74 0 6 28 c4 15 9 30 13 34 3 4 40 8 81 10 74 3
75 4 78 31 l3 27 -119 0 -119 0 -31 -152z"/>
<path d="M1035 1203 c-10 -43 -25 -115 -35 -160 l-18 -83 38 0 38 0 16 68 c8
37 18 85 22 107 13 79 21 71 50 -53 l28 -122 60 0 61 0 29 143 c16 78 31 150
34 160 4 14 -2 17 -35 17 l-39 0 -23 -115 c-13 -63 -27 -113 -30 -110 -4 2
-18 54 -31 114 l-24 111 -62 0 -63 0 -16 -77z"/>
<path d="M1433 1126 c-51 -85 -93 -157 -93 -160 0 -3 18 -6 40 -6 34 0 42 4
55 30 15 29 18 30 85 30 l70 0 0 -30 c0 -29 1 -30 50 -30 l51 0 -6 33 c-3 17
-16 88 -28 157 l-22 125 -55 3 -55 3 -92 -155z m140 22 l5 -68 -44 0 c-24 0
-44 2 -44 5 0 15 70 139 75 133 1 -2 5 -33 8 -70z"/>
<path d="M1795 1268 c-2 -7 -16 -71 -30 -143 -15 -71 -29 -138 -31 -147 -5
-15 2 -18 38 -18 l44 0 29 138 c15 75 30 147 33 160 4 20 1 22 -37 22 -24 0
-43 -5 -46 -12z"/>
</g>
</svg>
